HIERARCHY
ROOT Hips
{
	OFFSET 0.00000 0.00000 0.00000
	CHANNELS 6 Xposition Yposition Zposition Zrotation Yrotation Xrotation 
	JOINT LHipJoint
	{
		OFFSET 0 0 0
		CHANNELS 3 Zrotation Yrotation Xrotation
		JOINT LeftUpLeg
		{
			OFFSET 1.09156 -1.61406 0.76500
			CHANNELS 3 Zrotation Yrotation Xrotation
			JOINT LeftLeg
			{
				OFFSET 2.33750 -6.42225 0.00000
				CHANNELS 3 Zrotation Yrotation Xrotation
				JOINT LeftFoot
				{
					OFFSET 2.49247 -6.84800 0.00000
					CHANNELS 3 Zrotation Yrotation Xrotation
					JOINT LeftToeBase
					{
						OFFSET 0.15312 -0.42069 1.45461
						CHANNELS 3 Zrotation Yrotation Xrotation
						End Site
						{
							OFFSET 0.00000 -0.00000 0.77046
						}
					}
				}
			}
		}
	}
	JOINT RHipJoint
	{
		OFFSET 0 0 0
		CHANNELS 3 Zrotation Yrotation Xrotation
		JOINT RightUpLeg
		{
			OFFSET -0.99883 -1.61406 0.76500
			CHANNELS 3 Zrotation Yrotation Xrotation
			JOINT RightLeg
			{
				OFFSET -2.36877 -6.50815 0.00000
				CHANNELS 3 Zrotation Yrotation Xrotation
				JOINT RightFoot
				{
					OFFSET -2.53452 -6.96353 0.00000
					CHANNELS 3 Zrotation Yrotation Xrotation
					JOINT RightToeBase
					{
						OFFSET -0.13156 -0.36145 1.63237
						CHANNELS 3 Zrotation Yrotation Xrotation
						End Site
						{
							OFFSET -0.00000 -0.00000 0.84979
						}
					}
				}
			}
		}
	}
	JOINT LowerBack
	{
		OFFSET 0 0 0
		CHANNELS 3 Zrotation Yrotation Xrotation
		JOINT Spine
		{
			OFFSET -0.02431 1.98242 -0.13616
			CHANNELS 3 Zrotation Yrotation Xrotation
			JOINT Spine1
			{
				OFFSET 0.03629 1.98974 -0.02954
				CHANNELS 3 Zrotation Yrotation Xrotation
				JOINT Neck
				{
					OFFSET 0 0 0
					CHANNELS 3 Zrotation Yrotation Xrotation
					JOINT Neck1
					{
						OFFSET 0.09349 1.40783 0.22333
						CHANNELS 3 Zrotation Yrotation Xrotation
						JOINT Head
						{
							OFFSET -0.04273 1.44500 -0.06495
							CHANNELS 3 Zrotation Yrotation Xrotation
							End Site
							{
								OFFSET -0.02251 1.44600 -0.04544
							}
						}
					}
				}
				JOINT LeftShoulder
				{
					OFFSET 0 0 0
					CHANNELS 3 Zrotation Yrotation Xrotation
					JOINT LeftArm
					{
						OFFSET 3.49137 0.85126 -0.29740
						CHANNELS 3 Zrotation Yrotation Xrotation
						JOINT LeftForeArm
						{
							OFFSET 5.06035 -0.00000 0.00000
							CHANNELS 3 Zrotation Yrotation Xrotation
							JOINT LeftHand
							{
								OFFSET 3.14780 -0.00000 0.00000
								CHANNELS 3 Zrotation Yrotation Xrotation
								JOINT LeftFingerBase
								{
									OFFSET 0 0 0
									CHANNELS 3 Zrotation Yrotation Xrotation
									JOINT LeftHandIndex1
									{
										OFFSET 0.60675 -0.00000 0.00000
										CHANNELS 3 Zrotation Yrotation Xrotation
										End Site
										{
											OFFSET 0.48918 -0.00000 0.00000
										}
									}
								}
								JOINT LThumb
								{
									OFFSET 0 0 0
									CHANNELS 3 Zrotation Yrotation Xrotation
									End Site
									{
										OFFSET 0.49664 -0.00000 0.49664
									}
								}
							}
						}
					}
				}
				JOINT RightShoulder
				{
					OFFSET 0 0 0
					CHANNELS 3 Zrotation Yrotation Xrotation
					JOINT RightArm
					{
						OFFSET -3.28101 0.69707 0.00747
						CHANNELS 3 Zrotation Yrotation Xrotation
						JOINT RightForeArm
						{
							OFFSET -5.12273 -0.00000 -0.00000
							CHANNELS 3 Zrotation Yrotation Xrotation
							JOINT RightHand
							{
								OFFSET -3.42200 -0.00000 0.00000
								CHANNELS 3 Zrotation Yrotation Xrotation
								JOINT RightFingerBase
								{
									OFFSET 0 0 0
									CHANNELS 3 Zrotation Yrotation Xrotation
									JOINT RightHandIndex1
									{
										OFFSET -0.70460 -0.00000 0.00000
										CHANNELS 3 Zrotation Yrotation Xrotation
										End Site
										{
											OFFSET -0.56807 -0.00000 0.00000
										}
									}
								}
								JOINT RThumb
								{
									OFFSET 0 0 0
									CHANNELS 3 Zrotation Yrotation Xrotation
									End Site
									{
										OFFSET -0.57674 -0.00000 0.57674
									}
								}
							}
						}
					}
				}
			}
		}
	}
}
MOTION
Frames: 6
Frame Time: .0083333
19.4703 16.356 -1.2496 0 0 0 0 0 0 -21 0 0 0 0 0 0 0 0 0 0 0 0 0 0 21 0 0 0 0 0 0 0 0 0 0 0 0 0 0 0 0 0 0 0 0 0 0 -16 0 0 21 0 0 11 0 0 0 -8 0 0 0 0 0 0 0 0 0 0 0 0 0 0 0 0 0 0 0 0 8 0 0 0 0 0 0 0 0 0 0 0 0 0 0 0 0 0
19.4703 16.3560 -1.2496 -175.6180 51.2798 -170.9530 0.0000 0.0000 0.0000 -15.7375 -4.6222 -8.5473 1.9982 8.8623 25.3654 1.9831 1.7624 -27.3027 3.5581 11.5479 34.1507 0.0000 0.0000 0.0000 19.7103 3.8966 -3.7585 -0.7123 -5.3936 15.0346 -0.2144 -8.2320 -15.2888 -1.0146 6.4085 -17.9743 -0.6973 -0.2794 -6.3454 0.6416 -0.3193 -0.6291 1.0253 -0.1605 2.9165 1.7346 0.8196 -4.8087 1.8115 1.1095 -2.3936 0.2811 0.5883 0.0535 0.0000 0.0000 0.0000 -89.3194 -7.6887 14.1643 6.5749 -11.2175 -0.6464 -0.0000 -0.0000 19.4109 16.5992 44.1406 11.7281 -7.1250 0.0000 -0.0000 -35.6143 72.6447 -24.2009 0.0000 0.0000 0.0000 89.9551 2.7875 18.8623 -9.0560 15.2496 -1.2148 0.0000 0.0000 20.5197 -25.3929 22.6141 -10.3441 7.1250 -0.0000 -0.0000 2.2254 -5.2415 2.0143
19.4692 16.3545 -1.2539 -175.7540 51.3447 -171.1350 0.0000 0.0000 0.0000 -15.8776 -4.6285 -8.3578 1.9784 8.8208 25.2365 1.9828 1.8154 -27.3215 3.5461 11.5306 34.0910 0.0000 0.0000 0.0000 19.6090 4.1559 -3.6686 -0.7327 -5.4688 15.2507 -0.2173 -8.3566 -15.4679 -0.8187 5.7734 -16.1285 -0.8317 -0.2756 -6.2651 0.6315 -0.3070 -0.5657 1.0915 -0.1572 2.9373 1.7156 0.7758 -4.9839 1.7368 1.0442 -2.2979 0.2620 0.5572 0.1115 0.0000 -0.0000 0.0000 -89.3603 -7.7986 13.6515 6.5288 -11.1412 -0.6375 -0.0000 -0.0000 19.9547 16.5455 44.0914 11.6790 -7.1250 0.0000 -0.0000 -35.5624 72.5888 -24.1220 0.0000 -0.0000 0.0000 89.8986 2.8740 19.1152 -9.0345 15.2154 -1.2092 0.0000 0.0000 20.2326 -25.5553 22.8154 -10.5041 7.1250 -0.0000 -0.0000 2.1486 -4.9954 1.9548
19.4630 16.3551 -1.2631 -176.3500 51.4579 -171.5700 0.0000 0.0000 0.0000 -16.3569 -4.6469 -8.2737 1.9598 8.7818 25.1152 1.9905 1.7943 -27.3648 3.6347 11.6578 34.5319 0.0000 0.0000 0.0000 19.1061 4.0958 -3.8343 -0.7488 -5.5274 15.4192 -0.2416 -8.1871 -15.6202 -0.9594 6.2370 -17.4737 -1.2046 -0.2619 -6.3092 0.5522 -0.2611 -0.5265 1.2232 -0.1397 3.0027 1.7063 0.7900 -4.9123 1.7186 1.0739 -2.5140 0.2573 0.5708 0.0340 -0.0000 0.0000 0.0000 -89.4863 -7.9431 13.1375 6.4995 -11.0927 -0.6318 -0.0000 -0.0000 20.5968 16.2713 44.0198 11.4656 -7.1250 0.0000 -0.0000 -35.7025 72.4381 -24.1122 -0.0000 0.0000 0.0000 89.8124 2.8995 19.5709 -9.0456 15.2331 -1.2121 0.0000 0.0000 19.8424 -25.9272 22.6690 -10.6125 7.1250 -0.0000 -0.0000 1.8995 -5.0804 1.7248
19.4584 16.3563 -1.2718 -176.5780 51.5204 -171.7060 0.0000 0.0000 0.0000 -16.5437 -4.4974 -8.3289 1.9516 8.7645 25.0614 1.9930 1.5968 -27.3046 3.7311 11.7937 35.0059 0.0000 0.0000 0.0000 18.8761 4.0617 -3.9470 -0.7552 -5.5504 15.4853 -0.2644 -7.9690 -15.7011 -0.9126 6.0870 -17.0371 -1.3326 -0.2666 -6.3849 0.5071 -0.2560 -0.5136 1.2488 -0.1391 3.0586 1.8528 0.7675 -4.9318 1.5445 1.0339 -2.5107 0.1807 0.5487 0.0395 0.0000 0.0000 0.0000 -89.4946 -8.0047 12.8759 6.4861 -11.0703 -0.6292 -0.0000 -0.0000 20.8657 16.1723 43.9542 11.3808 -7.1250 0.0000 -0.0000 -35.6649 72.3541 -24.0229 0.0000 0.0000 0.0000 89.7761 2.9441 19.9200 -9.0226 15.1965 -1.2060 0.0000 0.0000 19.6422 -26.0157 22.4924 -10.5763 7.1250 -0.0000 -0.0000 1.8227 -5.2528 1.6490
19.4531 16.3582 -1.2783 -176.4920 51.5279 -171.5770 0.0000 0.0000 0.0000 -16.4964 -4.3034 -8.4952 1.9539 8.7695 25.0769 1.9808 1.4635 -27.1715 3.6907 11.7370 34.8079 0.0000 0.0000 0.0000 18.8927 4.0687 -4.0029 -0.7511 -5.5357 15.4430 -0.2647 -7.8720 -15.6038 -0.9100 6.0786 -17.0127 -1.2316 -0.2440 -6.4216 0.5113 -0.2326 -0.5129 1.1984 -0.1262 3.0787 1.7491 0.7139 -5.0597 1.6421 0.9649 -2.4539 0.2266 0.5171 0.0768 0.0000 -0.0000 0.0000 -89.5184 -8.0806 12.6786 6.4452 -11.0025 -0.6214 -0.0000 -0.0000 21.0769 16.2628 43.8319 11.4215 -7.1250 0.0000 -0.0000 -35.2961 72.2944 -23.7133 0.0000 -0.0000 0.0000 89.7547 2.9714 19.8398 -9.0395 15.2233 -1.2105 0.0000 0.0000 19.7662 -26.0099 22.6610 -10.6470 7.1250 -0.0000 -0.0000 1.8471 -5.0732 1.6774
